# xmcd
#
# Track frame offsets:
#	150
#	15448
#	38175
#	73566
#	94926
#	115982
#	122552
#	146750
#	165506
#	188458
#
# Disc length: 2962 seconds
#
# Revision: 17
# Processed by: cddbd v1.5.2PL0 Copyright (c) Steve Scherf et al.
# Submitted via: Jack! The Knife 20 Magnifico
#
DISCID=7d0b900a
DTITLE=Savatage - Handful Of Rain
DYEAR=1994
DGENRE=Heavy Metal
TTITLE0=Taunting Cobras
TTITLE1=Handful Of Rain
TTITLE2=Chance
TTITLE3=Stare Into The Sun
TTITLE4=Castles Burning
TTITLE5=Visions
TTITLE6=Watching You Fall
TTITLE7=Nothing's Going On
TTITLE8=Symmetry
TTITLE9=Alone You Breathe
EXTD=Paul O'Neill
EXTT0=Jon Oliva
EXTT1=Jon Oliva
EXTT2=J. Oliva, O'Neil
EXTT3=J. Oliva, O'Neil
EXTT4=Jon Oliva
EXTT5=C. Oliva, J. Oliva
EXTT6=Jon Oliva
EXTT7=J. Oliva, O'Neil
EXTT8=J. Oliva, O'Neil
EXTT9=J. Oliva, O'Neil
PLAYORDER=
